. 
  
http://www.torrenting.com/        :     Greatest Movie Tracker on The Net!!!
 
http://www.Torrenting.com          :     Once & For all ;)


               www . Torrenting . Com 

(((((((((((((= Enjoy No RAR releases =))))))))))))))))))))


...................................NFO:....................................

.








































          
          
              
              
                    
                    
                    
                    

The.Lion.King.1994.BRRip.Xvid.AC3-SiC

Poster:
[img]http://img709.imageshack.us/img709/4247/lionkingbluraycomboart.png[/img]

IMDB Link:
http://www.imdb.com/title/tt0110357/

Description:
Tricked into thinking he killed his father, a guilt ridden lion cub flees 
into exile and abandons his identity as the future King.

MediaInfo:
General
Complete name                    : The.Lion.King.1994.BRRip.Xvid.AC3-SiC.avi
Format                           : AVI
Format/Info                      : Audio Video Interleave
File size                        : 1.10 GiB
Duration                         : 1h 28mn
Overall bit rate                 : 1 776 Kbps

Video
ID                               : 0
Format                           : MPEG-4 Visual
Format profile                   : Advanced Simple@L5
Format settings, BVOP            : Yes
Format settings, QPel            : No
Format settings, GMC             : No warppoints
Format settings, Matrix          : Default (H.263)
Muxing mode                      : Packed bitstream
Codec ID                         : XVID
Codec ID/Hint                    : XviD
Duration                         : 1h 28mn
Bit rate                         : 1 384 Kbps
Width                            : 720 pixels
Height                           : 400 pixels
Display aspect ratio             : 16:9
Frame rate                       : 23.976 fps
Resolution                       : 8 bits
Colorimetry                      : 4:2:0
Scan type                        : Progressive
Bits/(Pixel*Frame)               : 0.200
Stream size                      : 875 MiB (78%)
Writing library                  : XviD 64

Audio
ID                               : 1
Format                           : AC-3
Format/Info                      : Audio Coding 3
Format_Settings_ModeExtension    : CM (complete main)
Codec ID                         : 2000
Duration                         : 1h 28mn
Bit rate mode                    : Constant
Bit rate                         : 384 Kbps
Channel(s)                       : 6 channels
Channel positions                : Front: L C R, Side: L R, LFE
Sampling rate                    : 48.0 KHz
Stream size                      : 243 MiB (22%)
Alignment                        : Aligned on interleaves
Interleave, duration             : 64 ms (1.53 video frames)
Interleave, preload duration     : 192 ms
Title                            : 6ch English

Screenshots:
[img]http://img638.imageshack.us/img638/6183/thelionking1994brripxvi.png[/img]
[img]http://img822.imageshack.us/img822/6183/thelionking1994brripxvi.png[/img]
[img]http://img818.imageshack.us/img818/6183/thelionking1994brripxvi.png[/img]
[img]http://img594.imageshack.us/img594/6183/thelionking1994brripxvi.png[/img]
[img]http://img705.imageshack.us/img705/6183/thelionking1994brripxvi.png[/img]

Note :   N/A 

Source : BluRay-DDR Thanks!!!

Encoder: Bezauk

Enjoy!

Respects to CaptainHomey, Cyanide, CM8, Rx, THC, ELEKTRI4KA, 
Killerhz, PA, YeFsTe, BoxSlots, MrRep and everyone in the struggle...